Legend of the Millenium Dragon

With: Ryuji Aigase, Satomi Ishihara and Kentarô Itô

De jonge Jun is een normale scholier, maar hij heeft op zijn borst een bijzondere moedervlek die de vorm aanneemt van een draak. Door die moedervlek reist hij abrupt door de tijd naar de middeleeuwse tijd van Heian. Die tijd wordt herinnerd om haar vredigheid, maar feitelijk moesten de mensen, onder leiding van een tovenaar en een krijger, vechten tegen demonen. Jun moet nu een legendarische draak doen ontwaken en onder zijn controle krijgen.

A 15-year-old boy goes 1200 years back in time to find his unlikely destiny as the savior to end the war between humans and demons. 

------------------ Dutch Friends ------------------
You can find my Friends at: http://www.Film-Test.nl 
------ They got my dutch subs ----- and more ------

General:

Complete name                    : Onigamiden\Legend of the Millenium Dragon.avi
Format                           : AVI
Format/Info                      : Audio Video Interleave
File size                        : 1.10 GiB
Duration                         : 1h 34mn
Overall bit rate                 : 1 665 Kbps

Video:

Format                           : MPEG-4 Visual
Format profile                   : Simple@L3
Format settings, BVOP            : No
Format settings, QPel            : No
Format settings, GMC             : No warppoints
Format settings, Matrix          : Default (H.263)
Codec ID                         : XVID
Codec ID/Hint                    : XviD
Duration                         : 1h 34mn
Bit rate                         : 1 271 Kbps
Width                            : 720 pixels
Height                           : 304 pixels
Display aspect ratio             : 2.35:1
Frame rate                       : 25.000 fps
Color space                      : YUV
Chroma subsampling               : 4:2:0
Bit depth                        : 8 bits
Scan type                        : Progressive
Compression mode                 : Lossy
Bits/(Pixel*Frame)               : 0.232
Stream size                      : 856 MiB (76%)
Writing library                  : XviD 1.1.2 (UTC 2006-11-01)

Audio:

Format                           : AC-3
Format/Info                      : Audio Coding 3
Mode extension                   : CM (complete main)
Codec ID                         : 2000
Duration                         : 1h 34mn
Bit rate mode                    : Constant
Bit rate                         : 384 Kbps
Channel(s)                       : 6 channels
Channel positions                : Front: L C R, Side: L R, LFE
Sampling rate                    : 48.0 KHz
Bit depth                        : 16 bits
Compression mode                 : Lossy
Stream size                      : 259 MiB (23%)
Alignment                        : Aligned on interleaves
Interleave, duration             : 32 ms (0.80 video frame)
Interleave, preload duration     : 192 ms
